PathFileType	4	(X/Y/Z)	OpenSim_Sub06_EMGBaseline_Accel.trc
DataRate	CameraRate	NumFrames	NumMarkers	Units	OrigDataRate	OrigDataStartFrame	OrigNumFrames
100	100	34	8	m	100	3102	8270
Frame#	Time	torso_imu_offset_imu	pelvis_imu_offset_imu	tibia_r_imu_offset_imu	femur_r_imu_offset_imu	tibia_l_imu_offset_imu	femur_l_imu_offset_imu	toes_r_imu_offset_imu	toes_l_imu_offset_imu
				X1	Y1	Z1	X2	Y2	Z2	X3	Y3	Z3	X4	Y4	Z4	X5	Y5	Z5	X6	Y6	Z6	X7	Y7	Z7	X8		Y8	Z8	

3102	31.01000000	9.02564392	-0.72011869	5.85904566	8.36500186	1.28698747	5.18551652	10.52817280	3.51797073	1.05392124	8.93403170	-1.33724438	-1.27754893	3.20893772	-4.61936683	4.83290828	9.68789300	2.96452278	0.13660584	4.54813450	-2.49843259	8.48436477	2.44768473	2.05056342	10.85418911
3103	31.02000000	8.88205783	-0.66634823	5.82416455	8.72469402	1.30018381	5.14299095	9.63313773	4.14595269	1.21390809	9.27408049	-1.16613344	-1.79097835	2.63067881	-4.32226272	5.55415527	9.37563335	3.23218766	0.57798276	4.82471185	-2.23001103	8.66302809	3.45188425	1.33208837	11.58724164
3104	31.03000000	8.79406794	-0.62560041	5.88905584	8.72220251	1.38498635	5.04451282	9.00444100	4.41470655	1.03726512	9.27415748	-1.20464455	-2.12561349	1.83879616	-4.52627371	5.46424697	9.12975294	3.34204473	0.78005351	4.70433304	-2.36465553	8.58532598	2.18746103	2.11970722	11.48965094
3105	31.04000000	8.81021387	-0.68243213	5.94762982	8.52219648	1.41228126	4.95090250	8.87144859	3.96251808	1.10186022	9.13317190	-1.26816234	-1.98637903	1.10797087	-5.45451580	4.91927666	9.11941973	3.28084387	0.73987040	4.65691273	-2.41945850	8.47700888	0.62096063	1.57978305	10.07708997
3106	31.05000000	8.71873899	-0.68190799	5.93442736	8.39367843	1.44589046	4.98578144	9.17052980	2.89458945	1.19057956	8.95783367	-1.36372060	-1.66437897	0.48807574	-6.22742378	4.28902552	9.03216050	3.24448747	0.64257161	4.72201424	-2.32250632	8.58498788	0.31786959	1.15686924	9.60776804
3107	31.06000000	8.62626881	-0.66572369	6.09247858	8.40487662	1.43063194	4.98984583	9.65088545	1.64297652	1.11556309	8.84546499	-1.64777789	-1.30894318	0.81094565	-6.07323678	3.72407534	8.74108160	3.41486587	0.45924344	5.09671275	-2.25253462	8.41393152	1.13040031	-0.03961098	9.43765667
3108	31.07000000	8.58643859	-0.65291333	6.00838246	8.52335858	1.52244826	4.93568327	10.16396467	0.50932210	1.05017445	8.93568861	-1.91779361	-1.11403398	2.11395911	-4.84790276	3.45039791	8.61404420	3.43144417	0.49648356	4.89556563	-2.34804067	8.42494639	2.29047549	-0.48229962	9.54750519
3109	31.08000000	8.60303370	-0.61835045	5.96750144	8.53654809	1.51302134	4.81730054	10.35289988	-0.04423627	0.87374765	8.98839233	-2.22342619	-0.88969945	4.00152125	-2.89871834	2.70605431	8.69769878	3.17013436	0.56535784	4.79120421	-2.51107096	8.38589959	3.20582601	0.00027639	10.11389130
3110	31.09000000	8.55585785	-0.59748083	6.11040167	8.47754887	1.41775214	4.70291012	10.26061415	0.05715434	0.76834284	8.99032846	-2.34812185	-0.65922877	5.75144562	-1.35643930	1.54321416	8.70314082	2.71644210	0.75755861	4.99715477	-2.41007070	8.45590263	4.04576079	0.33812520	10.35448441
3111	31.10000000	8.47315338	-0.63189549	6.14315761	8.41991375	1.57055192	4.50985088	9.86155944	0.58951702	0.72388819	8.96692678	-2.54721378	-0.73751145	6.50119045	-1.68075863	0.64081541	8.53799787	2.19064189	0.80541243	4.84773635	-2.58103002	8.27764289	4.59310201	0.78808252	10.72576048
3112	31.11000000	8.45554660	-0.68447001	6.03793327	8.36176895	1.69208243	4.37897381	9.49966245	1.39744940	0.89396464	8.61032999	-2.78506154	-0.94988273	6.61442598	-3.66944603	0.48651805	8.37021054	1.62141329	0.80671134	5.41903074	-2.13826680	8.23389917	5.11287796	0.85429461	11.16864470
3113	31.12000000	8.50524837	-0.72083291	6.14692185	8.29039980	1.71413947	4.28935098	9.22876644	2.08621985	0.92084403	8.36071242	-2.76470042	-1.17248655	6.76560292	-6.22959659	1.02149569	8.10162485	1.23988341	0.73395242	5.20406855	-2.08207186	8.24673299	6.22969016	0.67055049	12.11992365
3114	31.13000000	8.56783350	-0.74682349	6.23348314	8.39615345	1.88820193	4.22307022	9.13817186	2.67282580	1.01838960	8.21060094	-2.60875509	-1.39859604	6.85295363	-7.75356763	1.71113157	7.96669848	1.04102648	0.56364888	5.15330825	-2.12268605	8.32182935	8.30374858	0.26484464	13.30423541
3115	31.14000000	8.49747968	-0.77004437	6.22612438	8.34849270	1.83101034	4.21067536	9.04884584	3.10878225	1.06383520	8.32558289	-2.29436297	-1.61000657	7.19513475	-7.58144543	2.19640897	7.83954810	1.00996354	0.35201982	5.13003775	-2.20438987	8.31061081	10.08561022	0.20850827	14.03718726
3116	31.15000000	8.49040110	-0.75190950	6.24219590	8.34976267	1.96515433	4.28394409	9.08071517	3.21699550	1.00947703	8.56980214	-1.75377704	-1.76618751	7.75242563	-6.10120953	2.71913113	7.86330908	1.05222076	0.12222587	5.16170559	-2.16825677	8.26644566	10.65482963	0.85797803	14.08051431
3117	31.16000000	8.46402357	-0.75133826	6.23233165	8.29055684	1.99528442	4.33341555	9.29950424	3.00675266	0.75722030	8.80597114	-1.32521892	-1.86073658	8.08247643	-4.55137253	3.37243631	7.93090666	1.32865705	-0.03609775	5.26288958	-2.19990397	8.22957238	11.15914134	1.33705666	13.53026800
3118	31.17000000	8.45143947	-0.77712301	6.29445293	8.14626602	1.98918747	4.34524551	9.58010036	2.68166889	0.61509529	8.92846444	-1.03085500	-1.85128737	8.52311385	-2.89986461	4.02573986	7.95862532	1.78676268	-0.14572300	5.14155753	-2.31491196	8.28408196	11.71871152	1.26575139	12.71408053
3119	31.18000000	8.51164987	-0.85466920	6.30478760	8.03093282	2.08890936	4.29149665	9.85890021	2.35569112	0.49896271	8.84447320	-1.29002964	-1.62688137	8.98906202	-1.26516210	4.20275528	8.09053074	2.41093379	-0.15103082	5.02125118	-2.52667107	8.19754044	12.49705239	0.17845745	11.87481791
3120	31.19000000	8.56181857	-0.92893013	6.21027472	7.98892407	2.22286515	4.18312171	10.07790523	1.96542344	0.36128133	8.92078162	-1.53667903	-1.43875099	9.45489876	-0.16438419	3.73867457	8.08232285	3.23648576	0.01963859	4.99371672	-2.61072977	8.30290311	13.58853422	-0.88294795	11.40028478
3121	31.20000000	8.57645368	-0.80757876	6.26536644	7.90929536	2.27063172	4.03505079	10.22572065	1.48803624	0.41229193	9.02802034	-2.01657987	-1.36231110	10.09251660	0.11868817	2.38532811	7.95879686	3.75025736	0.17498853	5.29608403	-2.38920037	8.21514003	14.59471484	-2.38867362	10.52578005
3122	31.21000000	8.59411708	-0.88479397	6.17145556	7.77991560	2.27269005	3.91937257	10.32046422	1.10953073	0.54163248	8.92393367	-2.47811237	-1.18364239	11.35965281	-0.99461298	0.97680332	7.70698924	4.25595149	0.00105251	4.99677880	-2.46952680	8.32739916	15.42521583	-3.44467045	9.70613807
3123	31.22000000	8.60274701	-0.96276539	6.14609875	7.81853740	2.34736984	3.84761673	10.35709777	0.74176023	0.79030086	8.86049106	-2.52788273	-1.07924969	13.07190081	-3.35584364	-0.15810579	7.29921370	4.80660993	-0.52385279	4.91832103	-2.48863165	8.39066870	16.21047723	-4.34031315	8.90251081
3124	31.23000000	8.70716562	-0.99094269	6.13585338	7.85588422	2.40113049	3.83190944	10.36693373	0.43168459	1.15681281	8.85957186	-2.42026388	-1.05463927	14.17584280	-5.36434445	-0.95112361	6.90088850	5.52573556	-0.89611863	5.00886303	-2.40305398	8.47749139	17.18471801	-5.17306615	7.60151789
3125	31.24000000	8.92005087	-1.02896143	6.14648709	8.00751588	2.55743722	3.93127171	10.30923685	0.05302345	1.26557753	8.86164503	-2.50936353	-1.15215332	13.12410904	-5.62819206	-0.53360711	6.81830621	6.40173100	-0.98977582	4.98134276	-2.43054514	8.41509618	17.26196107	-5.56699448	5.81669584
3126	31.25000000	9.15691691	-1.08618579	6.16607951	8.21564258	2.50555389	3.93391398	10.29143306	-0.33987026	1.48778593	9.00014957	-2.60684182	-1.29024458	10.39108157	-4.67356122	1.12289254	7.11719623	7.20656203	-0.72366735	5.10585296	-2.20487542	8.55979440	17.02044661	-5.45926011	4.02933122
3127	31.26000000	9.29232838	-1.09273471	6.15304903	8.46518292	2.61215427	3.93193363	10.26240231	-0.50160119	1.56628075	9.16334487	-2.62215780	-1.43254348	7.55140185	-3.63720263	2.62417708	7.60016293	7.92609551	-0.22617924	5.02204755	-2.40835340	8.63725237	17.09809177	-5.42888592	2.44829048
3128	31.27000000	9.50209231	-1.13684698	6.18379401	8.75307577	2.59345106	3.85737119	10.27007592	-0.52032326	1.68040068	9.32269858	-2.66276842	-1.50142848	6.05219954	-2.66928973	3.44846843	8.03517158	8.47326477	0.16291571	4.92881731	-2.34100945	8.64949730	17.17753943	-6.02341667	1.19095400
3129	31.28000000	9.54674907	-1.15848375	6.18511340	8.83148682	2.53100295	3.76498141	10.15803887	-0.62077687	1.87057402	9.13540372	-3.08905395	-1.36382143	6.17013138	-1.44623442	3.78544457	8.05265428	8.49057295	0.12337028	4.85185846	-2.40172472	8.70153875	16.57254441	-6.82234279	0.10163596
3130	31.29000000	9.56194855	-1.18454940	6.19330505	8.95809981	2.49594900	3.54816589	10.09302610	-0.75530357	1.99328853	9.06859597	-3.25637653	-1.14775473	7.23245465	-0.18805342	3.76233590	7.52959302	8.06328334	-0.11210116	5.08417357	-2.20409885	8.54248058	15.63587274	-6.58406539	-0.53177003
3131	31.30000000	9.44906274	-1.11867321	6.17176210	8.77436566	2.46348509	3.42346832	10.06984299	-0.84415494	2.06931378	9.05002827	-3.45134349	-0.98208464	8.43739555	0.40102391	2.99871767	6.69791499	7.44915017	-0.43095676	5.07756191	-2.16269504	8.72536276	14.63580467	0.96989897	-1.74359614
3132	31.31000000	9.30745466	-1.17652946	6.09464772	8.77192202	2.52380549	3.42027756	10.16267070	-0.87390417	2.30373743	8.98163223	-3.74480344	-0.92832816	9.57957690	0.29429052	1.73324119	6.29325213	6.85790264	-0.71326237	5.09520481	-1.95374026	8.90993759	14.16015197	-0.50754133	-4.28978941
3133	31.32000000	9.42259459	-1.11445588	6.18637818	8.79475706	2.46015295	3.30772884	10.32848461	-0.88156864	2.62748941	8.89112229	-4.08939282	-0.92306577	10.62461400	0.51962921	1.51143539	6.37722256	6.23755105	-1.07599344	4.95154183	-2.24057662	8.97837191	14.83037326	-19.74319336	-5.13997986
3134	31.33000000	9.52962700	-0.96438510	6.23835861	8.67278055	2.26436462	3.74923865	10.45605600	-0.87208448	2.99005557	8.74828866	-4.24754834	-1.02350332	11.88370494	1.33785939	3.04062157	6.83922354	5.55479614	-0.59136682	4.96631419	-2.19388231	9.33249389	6.90986538	-14.93413121	16.56131699
3135	31.34000000	10.02279505	-0.88500405	6.51572012	8.74530791	1.74235705	4.87607324	10.83681025	-0.79496404	3.07989223	8.92392474	-4.39452779	-0.93073545	13.84527326	2.18209737	4.47628898	8.73412595	4.97137982	0.71540705	5.11711573	-2.41713355	9.59546597	10.63597736	-0.96627969	23.17930680
